<mxfile host="65bd71144e">
    <diagram name="Страница 1" id="XqwJs3OHlsFWiFqLp2U1">
        <mxGraphModel dx="283" dy="278" grid="1" gridSize="10" guides="1" tooltips="1" connect="1" arrows="1" fold="1" page="1" pageScale="1" pageWidth="850" pageHeight="1100" math="0" shadow="0">
            <root>
                <mxCell id="0"/>
                <mxCell id="1" parent="0"/>
                <mxCell id="60" value="" style="group" vertex="1" connectable="0" parent="1">
                    <mxGeometry x="90" y="540" width="660" height="390" as="geometry"/>
                </mxCell>
                <mxCell id="49" value="UiComponents" style="shape=folder;fontStyle=1;spacingTop=20;tabWidth=40;tabHeight=14;tabPosition=left;align=center;spacing=2;fontColor=default;html=1;verticalAlign=top;movable=0;resizable=0;rotatable=0;deletable=0;editable=0;connectable=0;" vertex="1" parent="60">
                    <mxGeometry width="660" height="390" as="geometry"/>
                </mxCell>
                <mxCell id="53" value="«Source»&#10;MainItems.php" style="shape=module;align=left;spacingLeft=20;align=center;verticalAlign=top;" vertex="1" parent="60">
                    <mxGeometry x="30" y="120" width="170" height="60" as="geometry"/>
                </mxCell>
                <mxCell id="54" value="«Source»&#10;ModulesItems.php" style="shape=module;align=left;spacingLeft=20;align=center;verticalAlign=top;" vertex="1" parent="60">
                    <mxGeometry x="220" y="120" width="170" height="60" as="geometry"/>
                </mxCell>
                <mxCell id="55" value="«Source»&#10;ControlPanel.php" style="shape=module;align=left;spacingLeft=20;align=center;verticalAlign=top;" vertex="1" parent="60">
                    <mxGeometry x="430" y="120" width="170" height="60" as="geometry"/>
                </mxCell>
                <mxCell id="56" value="«Source»&#10;NotificationBlock.php" style="shape=module;align=left;spacingLeft=20;align=center;verticalAlign=top;" vertex="1" parent="60">
                    <mxGeometry x="30" y="260" width="170" height="60" as="geometry"/>
                </mxCell>
                <mxCell id="57" value="«Source»&#10;AccountBlock.php" style="shape=module;align=left;spacingLeft=20;align=center;verticalAlign=top;" vertex="1" parent="60">
                    <mxGeometry x="220" y="260" width="170" height="60" as="geometry"/>
                </mxCell>
                <mxCell id="58" value="Container" style="shape=module;align=left;spacingLeft=20;align=center;verticalAlign=top;" vertex="1" parent="60">
                    <mxGeometry x="430" y="260" width="170" height="60" as="geometry"/>
                </mxCell>
                <mxCell id="82" value="" style="ellipse;whiteSpace=wrap;html=1;align=center;aspect=fixed;resizable=0;points=[];outlineConnect=0;sketch=0;strokeWidth=1;fontSize=12;" vertex="1" parent="60">
                    <mxGeometry x="110" y="70" width="10" height="10" as="geometry"/>
                </mxCell>
                <mxCell id="83" style="edgeStyle=orthogonalEdgeStyle;rounded=1;jumpStyle=none;html=1;strokeWidth=1;fontColor=default;startArrow=none;startFill=0;endArrow=none;endFill=0;endSize=10;" edge="1" parent="60" source="53" target="82">
                    <mxGeometry relative="1" as="geometry">
                        <mxPoint x="115" y="72.5" as="sourcePoint"/>
                    </mxGeometry>
                </mxCell>
                <mxCell id="85" value="UiComponent" style="text;html=1;strokeColor=none;fillColor=none;align=center;verticalAlign=middle;whiteSpace=wrap;rounded=0;" vertex="1" parent="60">
                    <mxGeometry x="20" y="67.5" width="80" height="12.5" as="geometry"/>
                </mxCell>
                <mxCell id="92" value="" style="ellipse;whiteSpace=wrap;html=1;align=center;aspect=fixed;resizable=0;points=[];outlineConnect=0;sketch=0;strokeWidth=1;fontSize=12;" vertex="1" parent="60">
                    <mxGeometry x="310" y="70" width="10" height="10" as="geometry"/>
                </mxCell>
                <mxCell id="93" style="edgeStyle=orthogonalEdgeStyle;rounded=1;jumpStyle=none;html=1;strokeWidth=1;fontColor=default;startArrow=none;startFill=0;endArrow=none;endFill=0;endSize=10;" edge="1" parent="60" target="92">
                    <mxGeometry relative="1" as="geometry">
                        <mxPoint x="315" y="120" as="sourcePoint"/>
                    </mxGeometry>
                </mxCell>
                <mxCell id="94" value="UiComponent" style="text;html=1;strokeColor=none;fillColor=none;align=center;verticalAlign=middle;whiteSpace=wrap;rounded=0;" vertex="1" parent="60">
                    <mxGeometry x="220" y="67.5" width="80" height="12.5" as="geometry"/>
                </mxCell>
                <mxCell id="95" value="" style="ellipse;whiteSpace=wrap;html=1;align=center;aspect=fixed;resizable=0;points=[];outlineConnect=0;sketch=0;strokeWidth=1;fontSize=12;" vertex="1" parent="60">
                    <mxGeometry x="520" y="70" width="10" height="10" as="geometry"/>
                </mxCell>
                <mxCell id="96" style="edgeStyle=orthogonalEdgeStyle;rounded=1;jumpStyle=none;html=1;strokeWidth=1;fontColor=default;startArrow=none;startFill=0;endArrow=none;endFill=0;endSize=10;" edge="1" target="95" parent="60">
                    <mxGeometry relative="1" as="geometry">
                        <mxPoint x="525" y="120" as="sourcePoint"/>
                    </mxGeometry>
                </mxCell>
                <mxCell id="97" value="UiComponent" style="text;html=1;strokeColor=none;fillColor=none;align=center;verticalAlign=middle;whiteSpace=wrap;rounded=0;" vertex="1" parent="60">
                    <mxGeometry x="430" y="67.5" width="80" height="12.5" as="geometry"/>
                </mxCell>
                <mxCell id="98" value="" style="ellipse;whiteSpace=wrap;html=1;align=center;aspect=fixed;resizable=0;points=[];outlineConnect=0;sketch=0;strokeWidth=1;fontSize=12;" vertex="1" parent="60">
                    <mxGeometry x="520" y="210" width="10" height="10" as="geometry"/>
                </mxCell>
                <mxCell id="99" style="edgeStyle=orthogonalEdgeStyle;rounded=1;jumpStyle=none;html=1;strokeWidth=1;fontColor=default;startArrow=none;startFill=0;endArrow=none;endFill=0;endSize=10;" edge="1" target="98" parent="60">
                    <mxGeometry relative="1" as="geometry">
                        <mxPoint x="525" y="260" as="sourcePoint"/>
                    </mxGeometry>
                </mxCell>
                <mxCell id="100" value="UiComponent" style="text;html=1;strokeColor=none;fillColor=none;align=center;verticalAlign=middle;whiteSpace=wrap;rounded=0;" vertex="1" parent="60">
                    <mxGeometry x="430" y="207.5" width="80" height="12.5" as="geometry"/>
                </mxCell>
                <mxCell id="101" value="" style="ellipse;whiteSpace=wrap;html=1;align=center;aspect=fixed;resizable=0;points=[];outlineConnect=0;sketch=0;strokeWidth=1;fontSize=12;" vertex="1" parent="60">
                    <mxGeometry x="310" y="210" width="10" height="10" as="geometry"/>
                </mxCell>
                <mxCell id="102" style="edgeStyle=orthogonalEdgeStyle;rounded=1;jumpStyle=none;html=1;strokeWidth=1;fontColor=default;startArrow=none;startFill=0;endArrow=none;endFill=0;endSize=10;" edge="1" target="101" parent="60">
                    <mxGeometry relative="1" as="geometry">
                        <mxPoint x="315" y="260" as="sourcePoint"/>
                    </mxGeometry>
                </mxCell>
                <mxCell id="103" value="UiComponent" style="text;html=1;strokeColor=none;fillColor=none;align=center;verticalAlign=middle;whiteSpace=wrap;rounded=0;" vertex="1" parent="60">
                    <mxGeometry x="220" y="207.5" width="80" height="12.5" as="geometry"/>
                </mxCell>
                <mxCell id="104" value="" style="ellipse;whiteSpace=wrap;html=1;align=center;aspect=fixed;resizable=0;points=[];outlineConnect=0;sketch=0;strokeWidth=1;fontSize=12;" vertex="1" parent="60">
                    <mxGeometry x="120" y="210" width="10" height="10" as="geometry"/>
                </mxCell>
                <mxCell id="105" style="edgeStyle=orthogonalEdgeStyle;rounded=1;jumpStyle=none;html=1;strokeWidth=1;fontColor=default;startArrow=none;startFill=0;endArrow=none;endFill=0;endSize=10;" edge="1" target="104" parent="60">
                    <mxGeometry relative="1" as="geometry">
                        <mxPoint x="125" y="260" as="sourcePoint"/>
                    </mxGeometry>
                </mxCell>
                <mxCell id="106" value="UiComponent" style="text;html=1;strokeColor=none;fillColor=none;align=center;verticalAlign=middle;whiteSpace=wrap;rounded=0;" vertex="1" parent="60">
                    <mxGeometry x="30" y="207.5" width="80" height="12.5" as="geometry"/>
                </mxCell>
                <mxCell id="86" value="" style="group" vertex="1" connectable="0" parent="1">
                    <mxGeometry x="248" y="160" width="355" height="250" as="geometry"/>
                </mxCell>
                <mxCell id="59" value="Views" style="shape=folder;fontStyle=1;spacingTop=20;tabWidth=40;tabHeight=14;tabPosition=left;html=1;fontColor=default;verticalAlign=top;" vertex="1" parent="86">
                    <mxGeometry width="355" height="250" as="geometry"/>
                </mxCell>
                <mxCell id="4" value="«Source»&#10;RenderAdminPage.php" style="shape=module;align=left;spacingLeft=20;align=center;verticalAlign=top;" vertex="1" parent="86">
                    <mxGeometry x="55" y="95" width="170" height="60" as="geometry"/>
                </mxCell>
                <mxCell id="5" value="" style="rounded=0;orthogonalLoop=1;jettySize=auto;html=1;endArrow=none;endFill=0;sketch=0;sourcePerimeterSpacing=0;targetPerimeterSpacing=0;" edge="1" target="51" parent="86" source="4">
                    <mxGeometry relative="1" as="geometry">
                        <mxPoint x="130" y="290" as="sourcePoint"/>
                        <mxPoint x="140" y="267.5" as="targetPoint"/>
                    </mxGeometry>
                </mxCell>
                <mxCell id="11" value="UiComponent" style="text;html=1;strokeColor=none;fillColor=none;align=center;verticalAlign=middle;whiteSpace=wrap;rounded=0;" vertex="1" parent="86">
                    <mxGeometry x="45" y="198.75" width="80" height="12.5" as="geometry"/>
                </mxCell>
                <mxCell id="51" value="" style="shape=requiredInterface;html=1;verticalLabelPosition=bottom;sketch=0;rotation=-90;fontColor=default;" vertex="1" parent="86">
                    <mxGeometry x="135" y="195" width="10" height="20" as="geometry"/>
                </mxCell>
                <mxCell id="107" style="edgeStyle=orthogonalEdgeStyle;rounded=1;jumpStyle=none;html=1;dashed=1;strokeWidth=1;fontSize=12;fontColor=default;startArrow=none;startFill=0;endArrow=open;endFill=0;endSize=10;" edge="1" parent="1" source="51">
                    <mxGeometry relative="1" as="geometry">
                        <mxPoint x="388" y="550" as="targetPoint"/>
                    </mxGeometry>
                </mxCell>
            </root>
        </mxGraphModel>
    </diagram>
</mxfile>